<svg fill="none" height="134" viewBox="0 0 73 134" width="73" xmlns="http://www.w3.org/2000/svg" xmlns:xlink="http://www.w3.org/1999/xlink"><linearGradient id="a" gradientUnits="userSpaceOnUse" x1="19.5" x2="62.5" y1="130" y2="8.50001"><stop offset="0" stop-color="#f7ff00"/><stop offset=".473958" stop-color="#ff7426"/><stop offset="1" stop-color="#fe1bb2"/></linearGradient><path d="m33.176 118.584c-7.968-.48-14.592-2.304-19.872-5.472-5.28-3.264-9.648-7.296-13.104003-12.096l8.784003-7.2c3.456 4.32 7.104 7.68 10.944 10.08s8.304 3.84 13.392 4.32v-37.584l-3.312-.576c-4.992-.864-9.168-2.16-12.528-3.888-3.36-1.824-6.048-3.936-8.064-6.336-2.016-2.496-3.456-5.232-4.32-8.208-.864-3.072-1.296-6.24-1.296-9.504 0-8.16 2.592-14.544 7.776-19.152 5.28-4.704 12.48-7.392 21.6-8.064v-14.688004h8.928v14.688004c6.624.48 12.336 2.112 17.136 4.896 4.896 2.688 9.168 6.48 12.816 11.376l-9.072 6.48c-2.592-3.456-5.568-6.24-8.928-8.352-3.264-2.112-7.296-3.408-12.096-3.888v35.28l4.32.72c4.896.864 9.024 2.16 12.384 3.888s6.048 3.84 8.064 6.336c2.112 2.4 3.6 5.136 4.464 8.208s1.296 6.288 1.296 9.648c0 8.448-2.64 15.216-7.92 20.304-5.184 5.088-12.672 8.016-22.464 8.784v14.688h-8.928zm-17.712-76.464c0 4.704 1.344 8.4 4.032 11.088 2.784 2.688 7.392 4.704 13.824 6.048v-33.984c-5.76.576-10.176 2.304-13.248 5.184-3.072 2.784-4.608 6.672-4.608 11.664zm45.36 47.52c0-5.184-1.488-9.12-4.464-11.808-2.88-2.688-7.68-4.608-14.4-5.76v36c6.048-.672 10.704-2.592 13.968-5.76s4.896-7.392 4.896-12.672z" fill="url(#a)"/></svg>